<?xml version="1.0" encoding="utf-8"?>
<!-- Generator: Adobe Illustrator 27.5.0, SVG Export Plug-In . SVG Version: 6.00 Build 0)  -->
<svg version="1.1" xmlns="http://www.w3.org/2000/svg" xmlns:xlink="http://www.w3.org/1999/xlink" x="0px" y="0px"
	 viewBox="0 0 1000 600" style="enable-background:new 0 0 1000 600;" xml:space="preserve">
<g id="BACKGROUND">
	<rect style="fill: none;" width="1000" height="600"/>
</g>
<g id="OBJECTS">
	<g>
		<path style="fill:#BAF3FA;" d="M161.785,214.348l7.891-8.494c74.222-79.901,185.925-92.206,271.975-29.961l0,0
			c32.371,23.416,72.119,29.045,108.459,15.36l89.651-33.76c75.345-28.372,157.948,3.404,203.31,78.211l0,0
			c45.839,75.594,21.108,180.489-51.649,219.067l0,0c-48.852,25.903-102.377,37.998-156.115,35.278l-391.304-19.809
			c-48.332-2.447-91.382-35.893-111.415-86.56l0,0C109.731,325.876,121.48,257.736,161.785,214.348z"/>
		<path style="fill:#E3FDFF;" d="M862.136,283.195c-3.573-15.823-9.525-31.269-18.007-45.691
			c-203.875,134.724-455.126-81.971-720.551,55.695c-3.074,17.568-3.364,35.771-0.746,53.706
			c109.195-76.148,249.368-74.253,490.57-46.592C748.815,315.842,822.415,301.403,862.136,283.195z"/>
		<g>
			<g>
				<path style="fill:#498461;" d="M810.108,357.684c0,27.282-22.117,49.399-49.399,49.399c-27.283,0-49.399-22.117-49.399-49.399
					c0-27.283,22.117-134.898,49.399-134.898C787.991,222.785,810.108,330.401,810.108,357.684z"/>
				<path style="fill:#394C42;" d="M781.307,368.752c-0.883-0.883-2.313-0.883-3.196,0l-15.141,15.141v-65.965l17.07-17.071
					c0.883-0.883,0.883-2.314,0-3.196c-0.883-0.883-2.313-0.883-3.196,0l-13.874,13.875v-49.484c0-1.249-1.012-2.26-2.26-2.26
					c-1.248,0-2.26,1.012-2.26,2.26v77.983l-15.062-15.062c0,0,0,0,0,0l-1.504-1.504c-0.883-0.883-2.313-0.883-3.196,0
					c-0.883,0.882-0.883,2.313,0,3.196l18.525,18.526c0.001,0.001,0.003,0.002,0.005,0.004l1.233,1.233v124.621
					c0,1.248,1.012,2.26,2.26,2.26c1.248,0,2.26-1.012,2.26-2.26v-80.763l18.338-18.337
					C782.19,371.066,782.19,369.635,781.307,368.752z"/>
			</g>
			<g>
				<path style="fill:#50A086;" d="M886.564,409.53c0,27.157-22.015,49.172-49.172,49.172c-27.157,0-49.172-22.015-49.172-49.172
					c0-27.157,22.015-134.277,49.172-134.277C864.549,275.253,886.564,382.373,886.564,409.53z"/>
				<path style="fill:#394C42;" d="M857.895,420.548c-0.879-0.879-2.303-0.879-3.182,0l-15.072,15.072v-65.661l16.992-16.992
					c0.879-0.878,0.879-2.303,0-3.181c-0.879-0.879-2.303-0.879-3.182,0l-13.81,13.811v-49.257c0-1.243-1.007-2.25-2.25-2.25
					s-2.25,1.007-2.25,2.25v77.625l-14.992-14.993c0,0,0,0,0,0l-1.497-1.497c-0.879-0.879-2.303-0.879-3.181,0
					c-0.879,0.878-0.879,2.303,0,3.181l18.439,18.44c0.002,0.001,0.003,0.002,0.005,0.004l1.227,1.227v88.877
					c0,1.243,1.007,2.25,2.25,2.25s2.25-1.007,2.25-2.25v-45.221l18.253-18.253C858.774,422.85,858.774,421.427,857.895,420.548z"/>
			</g>
			<path style="fill:#498461;" d="M873.841,498.089c-113.745-60.273-240.515-91.785-369.242-91.785h-21.869
				c-128.727,0-255.497,31.512-369.242,91.785l0,0L873.841,498.089L873.841,498.089z"/>
			<g>
				<g>
					
						<rect x="458.567" y="227.265" transform="matrix(-1 -1.224647e-16 1.224647e-16 -1 1101.9443 524.8756)" style="fill:#FFEAB0;" width="184.81" height="70.346"/>
					
						<rect x="458.567" y="227.265" transform="matrix(-1 -1.224647e-16 1.224647e-16 -1 1101.9443 524.8756)" style="fill:#FFEAB0;" width="184.81" height="70.346"/>
					<polygon style="fill:#E0B87C;" points="458.567,241.851 458.818,242.229 643.377,242.229 643.377,227.265 458.567,227.265 
											"/>
					<g>
						<path style="fill:#723424;" d="M383.62,153.72h29.516l-78.888,78.888c-0.687,0.687-12.605,0.243-29.692,0.176L383.62,153.72z"
							/>
						<polygon style="fill:#D6C492;" points="457.965,221.007 390.666,153.707 318.253,226.121 429.113,226.121 429.113,297.611 
							458.818,297.611 458.818,221.007 						"/>
						<polygon style="fill:#BAA370;" points="390.666,153.707 380.481,163.892 458.818,242.229 458.818,221.007 457.965,221.007 
													"/>
						<path style="fill:#723424;" d="M569.776,153.751H383.78l78.888,78.888c0.061,0.024,169.085,0.243,186.171,0.176
							L569.776,153.751z"/>
						<g>
							<path style="fill:#934334;" d="M460.847,153.751h-1.404l78.997,78.997c0.468,0.001,0.936,0.001,1.405,0.002L460.847,153.751z
								"/>
							<path style="fill:#934334;" d="M444.524,153.751h-1.404l78.978,78.978c0.467,0.001,0.935,0.001,1.405,0.002L444.524,153.751z
								"/>
							<path style="fill:#934334;" d="M428.201,153.751h-1.403l78.957,78.957c0.466,0.001,0.935,0.001,1.405,0.002L428.201,153.751z
								"/>
							<path style="fill:#934334;" d="M411.879,153.751h-1.404l78.935,78.935c0.464,0.001,0.933,0.001,1.406,0.002L411.879,153.751z
								"/>
							<path style="fill:#934334;" d="M474.469,232.663l-78.912-78.912h-1.403l78.91,78.91
								C473.518,232.662,473.988,232.662,474.469,232.663z"/>
							<path style="fill:#934334;" d="M526.041,153.751h-1.404l79.062,79.062c0.471,0,0.938,0.001,1.405,0.001L526.041,153.751z"/>
							<path style="fill:#934334;" d="M558.686,153.751h-1.404l79.076,79.076c0.478,0,0.946,0,1.404,0L558.686,153.751z"/>
							<path style="fill:#934334;" d="M477.169,153.751h-1.404l79.016,79.016c0.468,0,0.937,0.001,1.405,0.001L477.169,153.751z"/>
							<path style="fill:#934334;" d="M542.363,153.751h-1.404l79.072,79.072c0.472,0,0.94,0.001,1.404,0.001L542.363,153.751z"/>
							<path style="fill:#934334;" d="M493.492,153.751h-1.499l79.033,79.033c0.501,0.001,1.001,0.001,1.501,0.001L493.492,153.751z
								"/>
							<path style="fill:#934334;" d="M509.718,153.751h-1.404l79.048,79.048c0.469,0,0.938,0.001,1.405,0.001L509.718,153.751z"/>
						</g>
					</g>
				</g>
				<path style="fill:#723424;" d="M249.252,119.157h126.854l-72.46,72.459c-0.631,0.631-111.321,0.223-127.016,0.162
					L249.252,119.157z"/>
				<polygon style="fill:#D6C492;" points="318.285,354.156 190.812,354.156 190.812,188.373 253.244,123.288 318.285,188.373 				
					"/>
				
					<rect x="318.285" y="188.373" transform="matrix(-1 -1.224647e-16 1.224647e-16 -1 761.3011 542.5293)" style="fill:#FFEAB0;" width="124.731" height="165.784"/>
				<rect x="318.285" y="188.373" style="fill:#E0B87C;" width="124.731" height="17.503"/>
				<g>
					<rect x="318.07" y="223.433" style="fill:#D8C28B;" width="124.946" height="1.214"/>
					<rect x="318.07" y="231.35" style="fill:#D8C28B;" width="124.946" height="1.214"/>
					<rect x="318.07" y="239.267" style="fill:#D8C28B;" width="124.946" height="1.214"/>
					<rect x="318.07" y="215.517" style="fill:#D8C28B;" width="124.946" height="1.214"/>
					<rect x="318.07" y="199.683" style="fill:#D8C28B;" width="124.946" height="1.214"/>
					<rect x="318.07" y="207.6" style="fill:#D8C28B;" width="124.946" height="1.214"/>
					<rect x="318.07" y="247.184" style="fill:#D8C28B;" width="124.946" height="1.214"/>
					<rect x="318.07" y="294.685" style="fill:#D8C28B;" width="124.946" height="1.214"/>
					<rect x="318.07" y="255.101" style="fill:#D8C28B;" width="124.946" height="1.214"/>
					<rect x="318.07" y="302.6" style="fill:#D8C28B;" width="124.946" height="1.214"/>
					<rect x="318.07" y="286.768" style="fill:#D8C28B;" width="124.946" height="1.214"/>
					<rect x="318.07" y="278.851" style="fill:#D8C28B;" width="124.946" height="1.214"/>
					<rect x="318.07" y="263.018" style="fill:#D8C28B;" width="124.946" height="1.214"/>
					<rect x="318.07" y="270.934" style="fill:#D8C28B;" width="124.946" height="1.214"/>
				</g>
				<g>
					<rect x="458.768" y="262.319" style="fill:#D8C28B;" width="184.586" height="1.214"/>
					<rect x="458.768" y="270.236" style="fill:#D8C28B;" width="184.586" height="1.214"/>
					<rect x="458.768" y="278.153" style="fill:#D8C28B;" width="184.586" height="1.214"/>
					<rect x="458.768" y="254.402" style="fill:#D8C28B;" width="184.586" height="1.214"/>
					<rect x="458.768" y="238.569" style="fill:#D8C28B;" width="184.586" height="1.214"/>
					<rect x="458.768" y="246.485" style="fill:#D8C28B;" width="184.586" height="1.214"/>
					<rect x="458.768" y="286.07" style="fill:#D8C28B;" width="184.586" height="1.214"/>
					<rect x="458.768" y="293.986" style="fill:#D8C28B;" width="184.586" height="1.214"/>
				</g>
				<path style="fill:#934334;" d="M376.065,119.157H249.211l72.459,72.459c0.631,0.631,111.321,0.223,127.016,0.162
					L376.065,119.157z"/>
				<polygon style="fill:#BAA370;" points="190.812,188.373 190.812,189.455 249.801,137.392 318.285,205.876 318.285,188.373 
					253.244,123.288 				"/>
				<g>
					<path style="fill:#723424;" d="M289.009,119.157h-1.404l72.806,72.806c0.465,0,0.935,0.001,1.404,0.001L289.009,119.157z"/>
					<path style="fill:#723424;" d="M378.133,191.958l-72.801-72.801h-1.499l72.803,72.803
						C377.133,191.959,377.633,191.958,378.133,191.958z"/>
					<path style="fill:#723424;" d="M272.687,119.157h-1.404l72.777,72.777c0.464,0.002,0.934,0.003,1.408,0.004L272.687,119.157z"
						/>
					<path style="fill:#723424;" d="M329.046,191.839l-72.682-72.682h-1.404l72.664,72.664
						C328.077,191.827,328.549,191.833,329.046,191.839z"/>
					<path style="fill:#723424;" d="M370.526,119.157h-1.404l72.647,72.647c0.484-0.002,0.95-0.003,1.398-0.005L370.526,119.157z"/>
					<path style="fill:#723424;" d="M354.203,119.157H352.8l72.701,72.701c0.468-0.001,0.94-0.003,1.399-0.004L354.203,119.157z"/>
					<path style="fill:#723424;" d="M321.558,119.157h-1.404l72.781,72.781c0.468-0.001,0.934-0.002,1.401-0.003L321.558,119.157z"
						/>
					<path style="fill:#723424;" d="M337.881,119.157h-1.404l72.746,72.746c0.469-0.001,0.935-0.002,1.4-0.003L337.881,119.157z"/>
				</g>
				<g>
					<rect x="207.06" y="201.841" style="fill:#633933;" width="89.711" height="75.19"/>
					
						<rect x="219.766" y="200.026" transform="matrix(-1.836970e-16 1 -1 -1.836970e-16 491.3517 -12.4798)" style="fill:#72CBFC;" width="64.298" height="78.82"/>
					<g>
						<polygon style="fill:#A1E2FF;" points="291.326,224.3 244.041,271.585 249.294,271.585 291.326,229.553 						"/>
						<polygon style="fill:#A1E2FF;" points="280.48,207.287 216.182,271.585 232.012,271.585 291.326,212.271 291.326,207.287 
													"/>
						<polygon style="fill:#A1E2FF;" points="212.506,232.377 212.506,249.802 255.022,207.287 237.596,207.287 						"/>
					</g>
					<rect x="249.248" y="201.841" style="fill:#633933;" width="5.335" height="73.576"/>
				</g>
				<g>
					<rect x="336.786" y="201.841" style="fill:#633933;" width="89.711" height="75.19"/>
					
						<rect x="349.493" y="200.026" transform="matrix(-1.836970e-16 1 -1 -1.836970e-16 621.078 -142.2061)" style="fill:#72CBFC;" width="64.298" height="78.82"/>
					<g>
						<polygon style="fill:#A1E2FF;" points="421.052,224.3 373.767,271.585 379.02,271.585 421.052,229.553 						"/>
						<polygon style="fill:#A1E2FF;" points="410.206,207.287 345.908,271.585 361.738,271.585 421.052,212.271 421.052,207.287 
													"/>
						<polygon style="fill:#A1E2FF;" points="342.232,232.377 342.232,249.802 384.748,207.287 367.322,207.287 						"/>
					</g>
					<rect x="378.974" y="201.841" style="fill:#633933;" width="5.335" height="73.576"/>
				</g>
			</g>
			<g>
				<path style="fill:#723424;" d="M305.35,376.141l90.228-90.227H235.29l-90.42,90.42
					C144.87,376.333,304.505,376.987,305.35,376.141z"/>
				<polygon style="fill:#D6C492;" points="314.231,498.089 168.013,498.089 168.013,364.917 239.626,290.262 314.231,364.917 				
					"/>
				<path style="fill:#BAA370;" d="M239.796,290.431h-0.142l-0.028-0.17l-0.163,0.17l0,0l-8.493,8.853l0,0l-62.958,65.632
					l68.305-60.285l76.027,76.027c0.052,0.052,0.71,0.098,1.886,0.139v-15.881L239.796,290.431z"/>
				
					<rect x="314.231" y="364.917" transform="matrix(-1 -1.224647e-16 1.224647e-16 -1 789.1337 863.0061)" style="fill:#FFEAB0;" width="160.672" height="133.172"/>
				
					<rect x="314.231" y="490.175" transform="matrix(-1 -1.224647e-16 1.224647e-16 -1 789.1337 988.2644)" style="fill:#FFF4D7;" width="160.672" height="7.913"/>
				<g>
					<rect x="314.006" y="406.083" style="fill:#D8C28B;" width="160.911" height="1.214"/>
					<rect x="314.006" y="414" style="fill:#D8C28B;" width="160.911" height="1.214"/>
					<rect x="314.006" y="421.917" style="fill:#D8C28B;" width="160.911" height="1.214"/>
					<rect x="314.006" y="398.166" style="fill:#D8C28B;" width="160.911" height="1.214"/>
					<rect x="314.006" y="382.332" style="fill:#D8C28B;" width="160.911" height="1.214"/>
					<rect x="314.006" y="390.249" style="fill:#D8C28B;" width="160.911" height="1.214"/>
					<rect x="314.006" y="429.833" style="fill:#D8C28B;" width="160.911" height="1.214"/>
					<rect x="314.006" y="477.334" style="fill:#D8C28B;" width="160.911" height="1.214"/>
					<rect x="314.006" y="437.75" style="fill:#D8C28B;" width="160.911" height="1.214"/>
					<rect x="314.006" y="485.25" style="fill:#D8C28B;" width="160.911" height="1.214"/>
					<rect x="314.006" y="469.417" style="fill:#D8C28B;" width="160.911" height="1.214"/>
					<rect x="314.006" y="461.501" style="fill:#D8C28B;" width="160.911" height="1.214"/>
					<rect x="314.006" y="445.667" style="fill:#D8C28B;" width="160.911" height="1.214"/>
					<rect x="314.006" y="453.584" style="fill:#D8C28B;" width="160.911" height="1.214"/>
				</g>
				<rect x="314.231" y="364.917" style="fill:#E0B87C;" width="160.672" height="15.881"/>
				<g>
					<polygon style="fill:#FFFFFF;" points="342.047,482.673 325.324,482.673 328.864,375.939 338.507,375.939 					"/>
					<polygon style="fill:#CAD5E5;" points="332.185,375.939 328.864,375.939 325.324,482.673 330.696,482.673 					"/>
					<rect x="322.23" y="480.978" style="fill:#FFFFFF;" width="22.912" height="17.103"/>
					<rect x="322.23" y="480.978" style="fill:#CAD5E5;" width="11.33" height="17.103"/>
					<path style="fill:#CAD5E5;" d="M338.691,381.471l-0.183-5.532h-9.644l-0.207,6.24
						C332.224,382.079,335.565,381.833,338.691,381.471z"/>
				</g>
				<path style="fill:#934334;" d="M437.185,327.463l41.55-41.55h-83.099h-0.058h-160.23l90.227,90.228
					c0.846,0.846,160.554,0.297,160.554,0.297L437.185,327.463z"/>
				<g>
					<path style="fill:#723424;" d="M349.094,285.913l90.572,90.571c0.469-0.001,0.934-0.003,1.4-0.004l-90.568-90.568H349.094z"/>
					<path style="fill:#723424;" d="M332.771,285.913l90.61,90.61c0.466-0.001,0.936-0.002,1.401-0.003l-90.607-90.607H332.771z"/>
					<path style="fill:#723424;" d="M365.416,285.913l90.525,90.525c0.471-0.001,0.936-0.003,1.399-0.004l-90.521-90.521H365.416z"
						/>
					<path style="fill:#723424;" d="M473.609,376.38l-90.466-90.467h-0.037h-1.366h-0.037l90.472,90.471
						c0.471-0.002,0.948-0.003,1.399-0.005l0,0C473.584,376.38,473.597,376.38,473.609,376.38z"/>
					<path style="fill:#723424;" d="M283.803,285.913l90.66,90.659c0.467,0,0.934,0,1.404,0.001l-90.66-90.66H283.803z"/>
					<path style="fill:#723424;" d="M251.159,285.913l90.567,90.566c0.468,0.003,0.929,0.006,1.413,0.009l-90.576-90.576H251.159z"
						/>
					<path style="fill:#723424;" d="M316.449,285.913l90.64,90.639c0.467-0.001,0.934-0.001,1.402-0.002l-90.638-90.637H316.449z"/>
					<path style="fill:#723424;" d="M267.481,285.913l90.637,90.636c0.467,0.001,0.933,0.002,1.407,0.003l-90.64-90.64H267.481z"/>
					<path style="fill:#723424;" d="M300.126,285.913l90.658,90.657c0.466,0,0.935-0.001,1.403-0.001l-90.657-90.656H300.126z"/>
					<polygon style="fill:#723424;" points="463.565,301.083 448.396,285.913 446.992,285.913 462.864,301.785 					"/>
					<polygon style="fill:#723424;" points="471.727,292.922 464.718,285.913 463.314,285.913 471.025,293.624 					"/>
					<polygon style="fill:#723424;" points="455.404,309.245 432.073,285.913 430.669,285.913 454.702,309.946 					"/>
					<polygon style="fill:#723424;" points="447.243,317.406 415.75,285.913 414.347,285.913 446.541,318.108 					"/>
					<polygon style="fill:#723424;" points="439.082,325.567 399.428,285.913 398.024,285.913 438.38,326.269 					"/>
				</g>
				<g>
					<g>
						<rect x="345.983" y="394.817" style="fill:#633933;" width="63.572" height="75.19"/>
						
							<rect x="345.62" y="406.071" transform="matrix(-1.836970e-16 1 -1 -1.836970e-16 810.1815 54.6422)" style="fill:#72CBFC;" width="64.299" height="52.681"/>
						<g>
							<polygon style="fill:#A1E2FF;" points="351.429,438.664 389.831,400.263 383.569,400.263 378.511,400.263 372.405,400.263 
								351.429,421.238 							"/>
							<polygon style="fill:#A1E2FF;" points="404.11,439.301 378.85,464.561 384.103,464.561 404.11,444.554 							"/>
							<polygon style="fill:#A1E2FF;" points="404.11,411.441 351.429,464.122 351.429,464.561 366.82,464.561 404.11,427.271 
															"/>
						</g>
						<rect x="375.102" y="394.817" style="fill:#633933;" width="5.335" height="73.576"/>
					</g>
					<polygon style="fill:#E1D1A0;" points="466.368,394.817 466.69,394.817 468.449,394.817 468.449,498.082 464.61,498.082 
						464.61,394.817 					"/>
					<g>
						<rect x="194.797" y="394.817" style="fill:#633933;" width="89.711" height="75.19"/>
						
							<rect x="207.504" y="393.002" transform="matrix(-1.836970e-16 1 -1 -1.836970e-16 672.0649 192.7588)" style="fill:#72CBFC;" width="64.299" height="78.82"/>
						<g>
							<polygon style="fill:#A1E2FF;" points="279.063,417.276 231.778,464.561 237.031,464.561 279.063,422.529 							"/>
							<polygon style="fill:#A1E2FF;" points="268.217,400.263 203.919,464.561 219.749,464.561 279.063,405.247 279.063,400.263 
															"/>
							<polygon style="fill:#A1E2FF;" points="200.243,425.352 200.243,442.778 242.759,400.263 225.333,400.263 							"/>
						</g>
						<rect x="236.986" y="394.817" style="fill:#633933;" width="5.335" height="73.576"/>
					</g>
					<g>
						<polygon style="fill:#633933;" points="445.364,394.817 441.838,394.817 422.592,394.817 422.592,498.082 464.61,498.082 
							464.61,394.817 						"/>
						<g>
							<polygon style="fill:#72CBFC;" points="444.861,400.142 442.341,400.142 428.583,400.142 428.583,439.027 458.619,439.027 
								458.619,400.142 							"/>
							<g>
								<polygon style="fill:#A1E2FF;" points="458.619,431.109 458.619,418.846 438.438,439.027 450.7,439.027 								"/>
								<polygon style="fill:#A1E2FF;" points="428.583,419.193 447.635,400.142 444.861,400.142 442.34,400.142 437.953,400.142 
									428.583,409.512 								"/>
								<polygon style="fill:#A1E2FF;" points="428.583,437.265 458.619,407.229 458.619,400.142 457.961,400.142 428.583,429.52 
																	"/>
							</g>
						</g>
					</g>
					<g>
						<rect x="450.88" y="447.216" style="fill:#7A4641;" width="7.639" height="17.063"/>
						<path style="fill:#633933;" d="M456.676,450.786c0,1.092-0.885,1.976-1.977,1.976c-1.092,0-1.977-0.885-1.977-1.976
							c0-1.092,0.885-1.977,1.977-1.977C455.79,448.809,456.676,449.694,456.676,450.786z"/>
					</g>
				</g>
				<path style="fill:#51B762;" d="M409.031,498.001h-25.493v-1.043c0-6.464,5.24-11.704,11.704-11.704h2.086
					c6.464,0,11.704,5.24,11.704,11.704V498.001z"/>
				<path style="fill:#51B762;" d="M381.198,498.001h-25.493v-1.043c0-6.464,5.24-11.704,11.704-11.704h2.086
					c6.464,0,11.704,5.24,11.704,11.704V498.001z"/>
				<path style="fill:#51B762;" d="M353.365,498.001h-25.493v-1.043c0-6.464,5.24-11.704,11.704-11.704h2.086
					c6.464,0,11.704,5.24,11.704,11.704V498.001z"/>
			</g>
			<rect x="167.932" y="490.175" style="fill:#FFEAB0;" width="146.298" height="7.913"/>
			<rect x="113.436" y="497.981" style="fill:#75EA68;" width="295.514" height="9.681"/>
			<g>
				<g>
					<path style="fill:#934334;" d="M606.525,260.784l111.171,115.639h24.203L630.811,260.871
						C616.537,260.879,606.6,260.859,606.525,260.784z"/>
				</g>
				<g>
					
						<rect x="474.533" y="376.423" transform="matrix(-1 -1.224647e-16 1.224647e-16 -1 983.9652 874.5119)" style="fill:#D6C492;" width="34.899" height="121.666"/>
					
						<rect x="474.533" y="376.393" transform="matrix(-1 -1.224647e-16 1.224647e-16 -1 983.9652 757.1722)" style="fill:#BAA370;" width="34.899" height="4.387"/>
					<polygon style="fill:#FFEAB0;" points="731.451,498.089 509.432,498.089 509.432,376.423 620.603,260.784 731.451,376.423 
											"/>
					<g>
						<polygon style="fill:#D8C28B;" points="706.655,350.555 705.491,349.34 535.468,349.34 534.301,350.555 						"/>
						<polygon style="fill:#D8C28B;" points="699.066,342.638 697.902,341.424 543.079,341.424 541.912,342.638 						"/>
						<polygon style="fill:#D8C28B;" points="683.888,326.805 682.724,325.59 558.301,325.59 557.133,326.805 						"/>
						<polygon style="fill:#D8C28B;" points="691.477,334.721 690.313,333.507 550.69,333.507 549.523,334.721 						"/>
						<polygon style="fill:#D8C28B;" points="714.244,358.472 713.079,357.257 527.857,357.257 526.69,358.472 						"/>
						<polygon style="fill:#D8C28B;" points="729.421,374.305 728.257,373.091 512.635,373.091 511.468,374.305 						"/>
						<polygon style="fill:#D8C28B;" points="721.833,366.389 720.668,365.174 520.246,365.174 519.079,366.389 						"/>
						<polygon style="fill:#D8C28B;" points="653.533,295.137 652.369,293.923 588.745,293.923 587.577,295.137 						"/>
						<polygon style="fill:#D8C28B;" points="661.122,303.054 659.958,301.839 581.134,301.839 579.966,303.054 						"/>
						<polygon style="fill:#D8C28B;" points="595.188,287.22 645.944,287.22 644.78,286.006 596.356,286.006 						"/>
						<polygon style="fill:#D8C28B;" points="668.711,310.971 667.547,309.756 573.523,309.756 572.355,310.971 						"/>
						<polygon style="fill:#D8C28B;" points="676.299,318.888 675.135,317.673 565.912,317.673 564.744,318.888 						"/>
						<rect x="509.432" y="381.008" style="fill:#D8C28B;" width="222.019" height="1.214"/>
						<rect x="509.432" y="460.159" style="fill:#D8C28B;" width="222.019" height="1.214"/>
						<rect x="509.432" y="468.076" style="fill:#D8C28B;" width="222.019" height="1.214"/>
						<rect x="509.432" y="444.325" style="fill:#D8C28B;" width="222.019" height="1.215"/>
						<rect x="509.432" y="452.242" style="fill:#D8C28B;" width="222.019" height="1.214"/>
						<rect x="509.432" y="475.992" style="fill:#D8C28B;" width="222.019" height="1.214"/>
						<rect x="509.432" y="388.908" style="fill:#D8C28B;" width="222.019" height="1.23"/>
						<rect x="509.432" y="491.825" style="fill:#D8C28B;" width="222.019" height="1.214"/>
						<rect x="509.432" y="483.909" style="fill:#D8C28B;" width="222.019" height="1.214"/>
						<rect x="509.432" y="412.658" style="fill:#D8C28B;" width="222.019" height="1.214"/>
						<rect x="509.432" y="404.741" style="fill:#D8C28B;" width="222.019" height="1.214"/>
						<rect x="509.432" y="396.824" style="fill:#D8C28B;" width="222.019" height="1.214"/>
						<rect x="509.432" y="428.492" style="fill:#D8C28B;" width="222.019" height="1.214"/>
						<rect x="509.432" y="436.408" style="fill:#D8C28B;" width="222.019" height="1.214"/>
						<rect x="509.432" y="420.575" style="fill:#D8C28B;" width="222.019" height="1.215"/>
					</g>
					<polygon style="fill:#E0B87C;" points="623.023,273.804 731.451,382.232 731.451,376.423 627.791,268.283 					"/>
					<polygon style="fill:#E0B87C;" points="509.432,391.267 630.055,270.644 620.603,260.784 509.432,376.423 					"/>
				</g>
				<g>
					
						<ellipse transform="matrix(0.9969 -0.0791 0.0791 0.9969 -24.5122 50.4927)" style="fill:#633933;" cx="624.717" cy="334.472" rx="22.993" ry="22.993"/>
					<path style="fill:#72CBFC;" d="M624.718,352.019c-9.675,0-17.547-7.872-17.547-17.547s7.872-17.547,17.547-17.547
						c9.674,0,17.546,7.872,17.546,17.547S634.392,352.019,624.718,352.019z"/>
					<g>
						<path style="fill:#A1E2FF;" d="M639.758,325.482l-24.031,24.031c1.037,0.622,2.139,1.141,3.3,1.541l22.271-22.272
							C640.899,327.621,640.38,326.519,639.758,325.482z"/>
						<path style="fill:#A1E2FF;" d="M627.151,317.114l-19.791,19.791c0.625,4.476,2.928,8.42,6.272,11.154l24.673-24.673
							C635.57,320.042,631.627,317.739,627.151,317.114z"/>
					</g>
				</g>
				
					<rect x="509.271" y="490.175" transform="matrix(-1 -1.224647e-16 1.224647e-16 -1 1240.7219 988.2644)" style="fill:#FFF4D7;" width="222.18" height="7.913"/>
				<rect x="694.341" y="384.168" style="fill:#E1D1A0;" width="6" height="113.921"/>
				<rect x="474.554" y="490.175" style="fill:#FFEAB0;" width="34.717" height="7.913"/>
				<g>
					<path style="fill:#723424;" d="M630.768,260.784L519.597,376.423h-33.48l-49.131-49.131l67.066-66.663
						C504.052,260.628,630.501,261.051,630.768,260.784z"/>
					<g>
						<g>
							<g>
								<path style="fill:#934334;" d="M551.573,260.768c-0.467-0.001-0.935-0.002-1.4-0.004l-89.858,89.858l0.702,0.702
									L551.573,260.768z"/>
							</g>
							<g>
								<path style="fill:#934334;" d="M535.295,260.724c-0.469-0.001-0.937-0.003-1.4-0.004l-81.741,81.741l0.702,0.702
									L535.295,260.724z"/>
							</g>
							<g>
								<path style="fill:#934334;" d="M519.021,260.676c-0.472-0.001-0.945-0.003-1.399-0.004l-73.628,73.628l0.702,0.702
									L519.021,260.676z"/>
							</g>
							<g>
								<path style="fill:#934334;" d="M616.761,260.871c-0.46,0-0.927,0.001-1.404,0.001L499.805,376.423h1.404L616.761,260.871z"
									/>
							</g>
							<g>
								<path style="fill:#934334;" d="M600.444,260.865c-0.465,0-0.93-0.001-1.402-0.001L484.8,375.106l0.702,0.702
									L600.444,260.865z"/>
							</g>
							<g>
								<path style="fill:#934334;" d="M584.146,260.841c-0.466-0.001-0.933-0.002-1.401-0.003L476.638,366.944l0.702,0.702
									L584.146,260.841z"/>
							</g>
							<g>
								<path style="fill:#934334;" d="M567.857,260.807c-0.467-0.001-0.934-0.002-1.401-0.003l-97.979,97.979l0.702,0.702
									L567.857,260.807z"/>
							</g>
						</g>
					</g>
				</g>
				<g>
					<rect x="540.543" y="384.168" style="fill:#633933;" width="153.798" height="113.921"/>
					<g>
						<g>
							<rect x="540.543" y="422.67" style="fill:#7A4641;" width="153.798" height="1.089"/>
							<rect x="540.543" y="429.77" style="fill:#7A4641;" width="153.798" height="1.089"/>
							<rect x="540.543" y="436.869" style="fill:#7A4641;" width="153.798" height="1.089"/>
							<rect x="540.543" y="415.571" style="fill:#7A4641;" width="153.798" height="1.089"/>
							<rect x="540.543" y="401.372" style="fill:#7A4641;" width="153.798" height="1.089"/>
							<rect x="540.543" y="408.471" style="fill:#7A4641;" width="153.798" height="1.089"/>
							<rect x="540.543" y="443.969" style="fill:#7A4641;" width="153.798" height="1.089"/>
							<rect x="540.543" y="486.566" style="fill:#7A4641;" width="153.798" height="1.089"/>
							<rect x="540.543" y="451.068" style="fill:#7A4641;" width="153.798" height="1.089"/>
							<rect x="540.543" y="493.664" style="fill:#7A4641;" width="153.798" height="1.089"/>
							<rect x="540.543" y="479.466" style="fill:#7A4641;" width="153.798" height="1.089"/>
							<rect x="540.543" y="472.367" style="fill:#7A4641;" width="153.798" height="1.089"/>
							<rect x="540.543" y="458.168" style="fill:#7A4641;" width="153.798" height="1.089"/>
							<rect x="540.543" y="465.267" style="fill:#7A4641;" width="153.798" height="1.089"/>
						</g>
					</g>
					<g>
						<g>
							<rect x="545.857" y="388.737" style="fill:#72CBFC;" width="33.301" height="8.288"/>
							<g>
								<polygon style="fill:#A1E2FF;" points="579.158,390.677 579.158,388.737 564.052,388.737 555.765,397.025 572.811,397.025 
																	"/>
								<polygon style="fill:#A1E2FF;" points="547.816,397.025 550.905,397.025 559.193,388.737 556.104,388.737 								"/>
							</g>
						</g>
						<g>
							<rect x="582.624" y="388.737" style="fill:#72CBFC;" width="33.301" height="8.288"/>
							<g>
								<polygon style="fill:#A1E2FF;" points="615.925,390.677 615.925,388.737 600.819,388.737 592.532,397.025 609.578,397.025 
																	"/>
								<polygon style="fill:#A1E2FF;" points="584.583,397.025 587.672,397.025 595.96,388.737 592.871,388.737 								"/>
							</g>
						</g>
						<g>
							<rect x="619.391" y="388.737" style="fill:#72CBFC;" width="33.301" height="8.288"/>
							<g>
								<polygon style="fill:#A1E2FF;" points="652.693,390.677 652.693,388.737 637.586,388.737 629.299,397.025 646.345,397.025 
																	"/>
								<polygon style="fill:#A1E2FF;" points="621.35,397.025 624.439,397.025 632.727,388.737 629.638,388.737 								"/>
							</g>
						</g>
						<g>
							<rect x="656.158" y="388.737" style="fill:#72CBFC;" width="33.301" height="8.288"/>
							<g>
								<polygon style="fill:#A1E2FF;" points="689.46,390.677 689.46,388.737 674.353,388.737 666.066,397.025 683.112,397.025 
																	"/>
								<polygon style="fill:#A1E2FF;" points="658.117,397.025 661.206,397.025 669.494,388.737 666.405,388.737 								"/>
							</g>
						</g>
					</g>
				</g>
			</g>
			<g>
				<g>
					<rect x="755.026" y="430.276" style="fill:#C0D3DD;" width="7.005" height="67.818"/>
					<rect x="758.37" y="430.276" style="fill:#FFF4D7;" width="3.661" height="67.818"/>
				</g>
				<g>
					<rect x="816.214" y="430.276" style="fill:#C0D3DD;" width="7.005" height="67.818"/>
					<rect x="819.557" y="430.276" style="fill:#FFF4D7;" width="3.662" height="67.818"/>
				</g>
				<rect x="745.196" y="425.087" style="fill:#F94B4B;" width="88.646" height="45.404"/>
				<path style="fill:#A53865;" d="M833.842,456.982c-29.316,1.781-68.018-19.85-88.646-15.644v29.153h88.646V456.982z"/>
				<g>
				</g>
			</g>
		</g>
		
			<ellipse transform="matrix(0.2298 -0.9732 0.9732 0.2298 436.0528 810.1247)" style="fill:#FFE161;" cx="729.845" cy="129.574" rx="51.458" ry="51.458"/>
	</g>
</g>
</svg>
